<svg width="62" height="62" viewBox="0 0 62 62" fill="none" xmlns="http://www.w3.org/2000/svg">
<circle cx="31" cy="31" r="30.5" stroke="#FF5252"/>
<g clip-path="url(#clip0_189_2615)">
<path d="M33.6387 14.6001H22.4387C20.8947 14.6001 19.6387 15.8562 19.6387 17.4001V37.5601C19.6387 39.104 20.8947 40.3601 22.4387 40.3601H32.5187V39.2401H22.4387C21.5125 39.2401 20.7587 38.4864 20.7587 37.5601V17.4001C20.7587 16.4739 21.5125 15.7201 22.4387 15.7201H33.6387C34.5649 15.7201 35.3187 16.4739 35.3187 17.4001V33.6401H36.4387V17.4001C36.4387 15.8562 35.1826 14.6001 33.6387 14.6001Z" fill="#FF5252"/>
<path d="M41.8104 29.5165L36.3168 22.6509L35.4415 23.3509L40.9351 30.2159C41.648 31.1063 42.04 32.2252 42.0394 33.3659V47.0803H33.8467C30.9537 47.0803 28.5995 44.7266 28.5995 41.8331V39.8003H27.4795V41.8331C27.4795 45.3437 30.3361 48.2003 33.8467 48.2003H42.5995C42.9092 48.2003 43.1595 47.95 43.1595 47.6404V33.3665C43.1601 31.9732 42.6813 30.6057 41.8104 29.5165Z" fill="#FF5252"/>
<path d="M29.1569 27.807C29.55 27.8182 29.9158 27.9817 30.1851 28.2673L37.711 36.2641L38.5269 35.4964L30.9999 27.499C30.5244 26.9955 29.881 26.7071 29.1888 26.6875C28.4894 26.664 27.8381 26.9188 27.3408 27.3887C27.3347 27.3948 27.2899 27.4374 27.2843 27.4435C26.3273 28.4034 26.2628 29.9098 27.1359 30.9503L31.9592 36.6455V38.3781C31.9586 41.4726 33.9047 44.28 36.8027 45.3652L37.1957 44.3163C34.7328 43.394 33.0786 41.0078 33.0792 38.3781V36.4405C33.0792 36.3083 33.0321 36.1795 32.9465 36.0782L27.9922 30.2279C27.4966 29.6376 27.533 28.7802 28.1042 28.2085C28.3897 27.9386 28.7627 27.8047 29.1569 27.807Z" fill="#FF5252"/>
<path d="M33.08 15.7202H31.96V29.7202H33.08V15.7202Z" fill="#FF5252"/>
<path d="M30.2802 33.0796H29.1602V39.7996H30.2802V33.0796Z" fill="#FF5252"/>
<path d="M30.2802 15.1597H29.1602V27.4796H30.2802V15.1597Z" fill="#FF5252"/>
<path d="M23.5595 17.3999H22.4395V24.6799H23.5595V17.3999Z" fill="#FF5252"/>
<path d="M26.3593 17.3999H25.2393V21.8799H26.3593V17.3999Z" fill="#FF5252"/>
<path d="M26.3594 33.0796H22.9994C22.6903 33.0796 22.4395 33.3299 22.4395 33.6396V36.9996C22.4395 37.3093 22.6903 37.5595 22.9994 37.5595H26.3594C26.6685 37.5595 26.9194 37.3093 26.9194 36.9996V33.6396C26.9194 33.3299 26.6685 33.0796 26.3594 33.0796ZM25.7995 36.4396H23.5595V34.1996H25.7995V36.4396Z" fill="#FF5252"/>
</g>
<defs>
<clipPath id="clip0_189_2615">
<rect width="33.6" height="33.6" fill="white" transform="translate(14.5996 14.6001)"/>
</clipPath>
</defs>
</svg>
