<svg width="62" height="62" viewBox="0 0 62 62" fill="none" xmlns="http://www.w3.org/2000/svg">
<circle cx="31" cy="31" r="30.5" stroke="#FF5252"/>
<g clip-path="url(#clip0_189_2582)">
<path d="M48.52 23.8951H41.8724C40.7253 23.8951 39.792 24.8288 39.792 25.9767V33.6279H37.3055C37.4437 33.1255 37.495 32.533 37.4613 31.8435V31.8434C37.4074 28.9295 36.8786 26.4737 35.8897 24.5442C35.1217 23.0461 34.2256 22.1479 33.4566 21.611C34.3592 20.683 34.881 19.3628 34.881 17.8402C34.881 15.1007 32.6957 12.8721 30.0097 12.8721C27.3236 12.8721 25.1383 15.1007 25.1383 17.8402C25.1383 18.1574 25.3954 18.4144 25.7125 18.4144H26.1027C26.0668 18.6311 26.0476 18.8519 26.0476 19.0762C26.0476 21.0068 27.4271 22.6203 29.251 22.9819C29.0598 23.6918 28.9648 24.5289 28.9652 25.4798L27.533 26.7116L24.0483 26.9934L20.0285 25.6646C19.6601 25.5421 19.2425 25.4037 18.8802 25.6649C18.5232 25.9225 18.5232 26.3736 18.5232 26.5217V29.5103C18.5232 29.8275 18.7803 30.0845 19.0974 30.0845H19.7811L18.7326 33.7078C18.6444 34.0124 18.8199 34.3309 19.1246 34.419C19.4293 34.5076 19.7476 34.3316 19.8358 34.0271L20.9768 30.0845H22.6092C20.5788 36.2763 21.7373 40.4093 23.5181 44.592H22.4859L18.1867 39.7849L19.0958 36.6443C19.184 36.3397 19.0085 36.0213 18.7038 35.9332C18.3992 35.845 18.0808 36.0205 17.9926 36.3251L17.1231 39.3292C14.4337 39.2843 12.0281 41.1385 11.4151 43.8062C11.3441 44.1152 11.537 44.4232 11.8459 44.4943L12.6611 44.6819C12.4528 46.8449 13.8773 48.8857 16.0496 49.3857C16.3796 49.4618 16.7123 49.4993 17.0427 49.4993C17.8577 49.4993 18.6583 49.2708 19.3664 48.827C20.1975 48.3062 20.8167 47.5406 21.1519 46.6357L21.7951 46.7837C21.9867 46.8281 22.1684 46.8505 22.3501 46.7527C22.519 46.6618 22.6313 46.4976 22.6735 46.3122C22.7139 46.1242 22.7447 45.9332 22.766 45.7404H34.7755C35.1595 48.1282 37.1911 49.9281 39.6174 49.9281C42.0438 49.9281 44.0754 48.1282 44.4595 45.7404H44.8977C44.8977 45.7404 44.9847 45.7414 45.0045 45.7414C45.1687 45.7414 45.4059 45.7232 45.6007 45.5251C45.6982 45.4259 45.8126 45.2485 45.8038 44.9667C45.7876 44.4275 45.7067 43.9065 45.5686 43.4112C46.0259 40.6345 45.5859 38.9433 44.9335 37.6197C45.3459 37.3494 45.6194 36.8836 45.6194 36.3544V34.7762H48.5198C49.6669 34.7762 50.6002 33.8425 50.6002 32.6946V25.9766C50.6004 24.8288 49.6672 23.8951 48.52 23.8951ZM18.7566 47.854C18.0215 48.3147 17.1518 48.4612 16.3074 48.2668H16.3074C14.7533 47.9091 13.7165 46.484 13.7921 44.9431L20.0206 46.3767C19.7629 46.9834 19.3269 47.4966 18.7566 47.854ZM21.6298 45.5674L12.6977 43.512C13.387 41.6244 15.2419 40.3749 17.2695 40.4824L21.6451 45.3748C21.6413 45.4394 21.6363 45.5035 21.6298 45.5674ZM30.3032 35.5611C30.1365 36.0007 30.1365 36.5427 30.1365 37.2929V39.4598H28.0339V36.487C28.0339 33.1261 29.8682 32.5271 30.6914 32.4283H36.3209C36.2983 33.1911 36.1262 33.7333 35.7994 34.0774C35.4186 34.4785 34.767 34.6739 33.8072 34.6748L31.746 34.6769C31.011 34.677 30.5256 34.9744 30.3032 35.5611ZM30.1365 40.6081V41.9792C30.1313 41.9792 30.126 41.9792 30.1205 41.9792H26.0417C26.0876 41.554 26.2201 41.2249 26.4376 40.9972C26.7611 40.6587 27.2168 40.6081 27.4597 40.6081H30.1365ZM36.2956 31.2799H31.0735C30.8638 30.62 30.6768 29.8974 30.5231 29.1548L32.1108 28.1242C32.9775 27.5614 33.4283 26.7662 33.3478 25.9423C33.2764 25.212 32.7799 24.5596 32.0829 24.2803C31.4464 24.0254 30.7612 24.1055 30.1557 24.4927C30.2056 23.9434 30.2985 23.4531 30.433 23.0369C30.6778 23.0116 30.9208 22.9638 31.1596 22.8936C31.6455 22.7807 32.0945 22.6009 32.4999 22.3624C33.6059 23.0231 36.0383 25.1662 36.2956 31.2799ZM26.3288 17.2661C26.5996 15.4313 28.1471 14.0206 30.0097 14.0206C32.0625 14.0206 33.7326 15.7341 33.7326 17.8403C33.7326 19.5533 32.9112 20.9339 31.5866 21.5415V18.5202C31.5866 17.997 31.3864 17.3553 30.4329 17.2684C30.4156 17.2668 30.3982 17.2661 30.3808 17.2661H26.3288ZM27.1962 19.0762C27.1962 18.8496 27.222 18.6283 27.2727 18.4145H30.3527C30.3881 18.4183 30.414 18.4225 30.4325 18.4262C30.4355 18.4475 30.4381 18.4781 30.4381 18.5202V21.8794C30.3013 21.8996 30.1636 21.9097 30.0261 21.9098C30.0248 21.9098 30.0235 21.9098 30.0222 21.9098C28.4637 21.9084 27.1962 20.6378 27.1962 19.0762ZM26.4517 27.9514L27.8118 27.8413C27.933 27.8316 28.0479 27.7836 28.1402 27.7044L30.5948 25.5932L30.5951 25.5928C30.8325 25.3883 31.0858 25.2834 31.3325 25.2834C31.4423 25.2834 31.5508 25.3042 31.6559 25.3463C31.9593 25.4678 32.1748 25.7456 32.2049 26.0538C32.2428 26.4418 31.9873 26.835 31.4856 27.1609L28.7504 28.9362H26.4519V27.9514H26.4517ZM24.025 28.1477L25.3033 28.0443V28.9363H23.8179C23.6254 28.9363 23.5784 28.7763 23.5729 28.6421C23.5698 28.566 23.577 28.1844 24.025 28.1477ZM22.666 27.7512C22.493 28.0348 22.4122 28.3666 22.4255 28.6891C22.4289 28.7726 22.4396 28.8531 22.4544 28.9315C22.4544 28.9331 22.4535 28.9347 22.4538 28.9363H19.6718V26.7563L22.6682 27.7468C22.6673 27.7483 22.6668 27.7498 22.666 27.7512ZM23.8211 30.0847H28.9203C29.0312 30.0847 29.1398 30.0525 29.2329 29.9921L29.4928 29.8234C29.6178 30.376 29.7602 30.9138 29.9153 31.4217C28.7442 31.7674 26.8854 32.8845 26.8854 36.4869V39.5174C26.4825 39.5987 26.0059 39.7865 25.6073 40.2037C25.187 40.6435 24.947 41.2394 24.8894 41.9791H23.731C22.5637 38.6151 22.1198 35.0354 23.8211 30.0847ZM24.7676 44.5901C24.5554 44.102 24.3508 43.6157 24.1582 43.1277H30.1204C30.8931 43.1277 31.2849 42.7759 31.2849 42.0821V40.0339V37.867H35.8173C36.1345 37.867 36.3915 37.61 36.3915 37.2928C36.3915 36.9756 36.1345 36.7186 35.8173 36.7186H31.289C31.2964 36.3925 31.3173 36.1257 31.3771 35.9681C31.4061 35.8915 31.4312 35.8254 31.7466 35.8254L33.8082 35.8232C35.0995 35.822 36.0232 35.5096 36.6323 34.8682C36.6604 34.8385 36.6871 34.8073 36.7138 34.7763H40.3663H44.4712V36.3545C44.4712 36.5519 44.3048 36.7186 44.1079 36.7186H38.3914C38.0742 36.7186 37.8171 36.9756 37.8171 37.2928C37.8171 37.61 38.0742 37.867 38.3914 37.867H43.7705C44.2243 38.7095 44.6326 39.7577 44.6083 41.4138C43.4723 39.8358 41.6332 38.8211 39.5459 38.8211C37.8697 38.8211 36.2968 39.4786 35.1168 40.6726C34.0699 41.732 33.441 43.107 33.3117 44.592L24.7676 44.5901ZM39.6175 48.7798C37.8224 48.7798 36.3085 47.4864 35.9422 45.7406H43.2928C42.9265 47.4863 41.4125 48.7798 39.6175 48.7798ZM43.9451 44.5921H35.29H34.4651C34.747 41.9957 36.918 39.9695 39.5459 39.9695C41.8531 39.9695 43.7907 41.4909 44.4324 43.6206C44.4344 43.6274 44.4365 43.6341 44.4388 43.6408C44.5295 43.9463 44.5936 44.2644 44.6283 44.5921H43.9451ZM49.452 32.6947C49.452 33.2093 49.0338 33.6279 48.52 33.6279H40.9404V30.6625H49.452V32.6947ZM49.452 29.5141H40.9404V28.2928H49.452V29.5141ZM49.452 27.1444H40.9404V25.9767C40.9404 25.4621 41.3585 25.0435 41.8724 25.0435H48.52C49.0338 25.0435 49.452 25.4622 49.452 25.9767V27.1444Z" fill="#FF5252"/>
</g>
<defs>
<clipPath id="clip0_189_2582">
<rect width="39.2" height="39.2" fill="white" transform="translate(11.4004 11.7998)"/>
</clipPath>
</defs>
</svg>
