<svg width="62" height="62" viewBox="0 0 62 62" fill="none" xmlns="http://www.w3.org/2000/svg">
<circle cx="31" cy="31" r="30.5" stroke="#FF5252"/>
<path d="M29.4246 38.0986V31.8248C29.4246 31.6856 29.3693 31.552 29.2709 31.4536C29.1724 31.3551 29.0389 31.2998 28.8996 31.2998C25.6932 31.2998 25.2437 36.8013 25.2261 37.0354C25.2183 37.1393 25.2416 37.2432 25.293 37.3338C25.3444 37.4244 25.4216 37.4977 25.5148 37.5443L26.2746 37.9243V38.0988L25.8678 42.1681C25.8459 42.387 25.8701 42.6082 25.9389 42.8172C26.0077 43.0262 26.1195 43.2185 26.2671 43.3816C26.4148 43.5448 26.595 43.6752 26.7961 43.7644C26.9972 43.8537 27.2148 43.8998 27.4349 43.8998H28.2644C28.4844 43.8998 28.702 43.8537 28.9032 43.7644C29.1043 43.6752 29.2845 43.5448 29.4321 43.3816C29.5798 43.2185 29.6916 43.0262 29.7604 42.8172C29.8292 42.6082 29.8534 42.387 29.8315 42.1681L29.4246 38.0986ZM26.3107 36.7683C26.4017 36.0322 26.5635 35.3065 26.794 34.6015C27.1975 33.4142 27.7276 32.6918 28.3746 32.4455V37.5998H27.3246C27.3246 37.5023 27.2975 37.4067 27.2462 37.3238C27.195 37.2409 27.1216 37.1739 27.0344 37.1303L26.3107 36.7683ZM28.6535 42.6771C28.6045 42.7317 28.5445 42.7754 28.4775 42.8052C28.4104 42.8349 28.3378 42.8502 28.2644 42.8498H27.4349C27.3615 42.8498 27.2889 42.8344 27.2219 42.8047C27.1548 42.7749 27.0947 42.7314 27.0455 42.677C26.9963 42.6226 26.959 42.5585 26.9361 42.4888C26.9132 42.4191 26.9051 42.3453 26.9124 42.2723L27.2748 38.6498H28.4245L28.7868 42.2723C28.7945 42.3454 28.7867 42.4192 28.7637 42.489C28.7408 42.5588 28.7033 42.6229 28.6537 42.6771H28.6535Z" fill="#FF5252"/>
<path d="M46.225 15.0254H42.025C41.8858 15.0254 41.7522 15.0807 41.6538 15.1792C41.5553 15.2776 41.5 15.4112 41.5 15.5504V16.0754H30.5394C30.0648 16.0757 29.5978 16.1948 29.181 16.4218L24.0411 19.2254H17.875C16.9918 19.2254 16.3 20.1478 16.3 21.3254C16.3 22.4245 16.9028 23.3007 17.7012 23.413L15.3342 31.4258C15.3321 31.433 15.3301 31.4402 15.3283 31.4473C15.2763 31.6555 15.25 31.8693 15.25 32.0839V47.0504C15.25 47.1896 15.3053 47.3232 15.4038 47.4216C15.5022 47.5201 15.6358 47.5754 15.775 47.5754H39.4C39.5392 47.5754 39.6728 47.5201 39.7712 47.4216C39.8697 47.3232 39.925 47.1896 39.925 47.0504V32.1278C39.925 31.8771 39.8891 31.6276 39.8183 31.3871L37.6309 23.9499C38.3432 23.9447 39.0276 23.672 39.5483 23.1859C40.0691 22.6998 40.3881 22.0357 40.4422 21.3254H41.5V22.3754C41.5 22.5146 41.5553 22.6482 41.6538 22.7466C41.7522 22.8451 41.8858 22.9004 42.025 22.9004H46.225C46.3642 22.9004 46.4978 22.8451 46.5962 22.7466C46.6947 22.6482 46.75 22.5146 46.75 22.3754V15.5504C46.75 15.4112 46.6947 15.2776 46.5962 15.1792C46.4978 15.0807 46.3642 15.0254 46.225 15.0254ZM17.35 21.3254C17.35 20.6844 17.6609 20.2754 17.875 20.2754H32.8826L30.7826 22.3754H17.875C17.6609 22.3754 17.35 21.9663 17.35 21.3254ZM33.7033 31.4474C33.6513 31.6556 33.625 31.8694 33.625 32.084V46.5254H16.3V32.0839C16.3001 31.9586 16.315 31.8337 16.3446 31.7119L18.7923 23.4254H29.8327C29.5587 23.8884 29.4546 24.4325 29.5385 24.964C29.6224 25.4955 29.8889 25.9812 30.2923 26.3373C30.6956 26.6934 31.2105 26.8978 31.7483 26.9152C32.2861 26.9326 32.8131 26.762 33.2387 26.4327L35.7644 24.4681L33.7092 31.4259C33.7071 31.433 33.7051 31.4402 33.7033 31.4474ZM36.775 45.1679L38.1325 46.5254H35.4175L36.775 45.1679ZM38.811 31.6836C38.8535 31.8278 38.875 31.9774 38.875 32.1278V45.7829L37.3 44.2079V32.8754C37.3 32.7362 37.2447 32.6026 37.1462 32.5042C37.0478 32.4057 36.9142 32.3504 36.775 32.3504C36.6358 32.3504 36.5022 32.4057 36.4038 32.5042C36.3053 32.6026 36.25 32.7362 36.25 32.8754V44.208L34.675 45.783V32.0839C34.675 31.9586 34.69 31.8337 34.7196 31.7119L36.7736 24.7572L38.811 31.6836ZM41.5 20.2754H40.2382C40.016 20.2757 39.8029 20.364 39.6458 20.5212C39.4887 20.6783 39.4003 20.8914 39.4 21.1136C39.3995 21.5873 39.211 22.0415 38.8761 22.3765C38.5411 22.7114 38.0869 22.8999 37.6132 22.9004H36.3226C36.1589 22.9007 35.9998 22.9553 35.8704 23.0556L32.5939 25.6041C32.3405 25.8014 32.0214 25.8947 31.7016 25.8648C31.3819 25.835 31.0855 25.6844 30.873 25.4436C30.6604 25.2029 30.5477 24.8901 30.5577 24.5691C30.5678 24.2481 30.6998 23.943 30.927 23.716L34.5212 20.1218C34.5947 20.0484 34.6447 19.9549 34.665 19.853C34.6853 19.7511 34.675 19.6455 34.6352 19.5495C34.5955 19.4536 34.5282 19.3715 34.4418 19.3138C34.3554 19.2561 34.2539 19.2254 34.15 19.2254H26.2339L29.6839 17.3435C29.9464 17.2006 30.2405 17.1256 30.5394 17.1254H41.5V20.2754ZM45.7 21.8504H42.55V16.0754H45.7V21.8504Z" fill="#FF5252"/>
<path d="M24.7002 31.8248C24.7002 31.6856 24.6449 31.552 24.5464 31.4536C24.448 31.3551 24.3144 31.2998 24.1752 31.2998C24.036 31.2998 23.9024 31.3551 23.804 31.4536C23.7055 31.552 23.6502 31.6856 23.6502 31.8248V33.3998H22.6002V31.8248C22.6002 31.6856 22.5449 31.552 22.4464 31.4536C22.348 31.3551 22.2144 31.2998 22.0752 31.2998C21.936 31.2998 21.8024 31.3551 21.704 31.4536C21.6055 31.552 21.5502 31.6856 21.5502 31.8248V33.3998H20.5002V31.8248C20.5002 31.6856 20.4449 31.552 20.3464 31.4536C20.248 31.3551 20.1144 31.2998 19.9752 31.2998C19.836 31.2998 19.7024 31.3551 19.604 31.4536C19.5055 31.552 19.4502 31.6856 19.4502 31.8248V33.9248H19.4512C19.4508 34.0062 19.4695 34.0866 19.5056 34.1596L20.4913 36.1309L20.0569 42.2126C20.0415 42.4283 20.0707 42.6449 20.1426 42.8489C20.2146 43.0528 20.3278 43.2398 20.4752 43.3981C20.6226 43.5564 20.801 43.6826 20.9993 43.7689C21.1976 43.8553 21.4116 43.8998 21.6279 43.8998H22.5225C22.7388 43.8998 22.9527 43.8553 23.1511 43.7689C23.3494 43.6826 23.5278 43.5564 23.6752 43.3981C23.8226 43.2398 23.9358 43.0528 24.0077 42.8489C24.0797 42.6449 24.1089 42.4283 24.0935 42.2126L23.6591 36.1309L24.6447 34.1596C24.6809 34.0866 24.6996 34.0062 24.6992 33.9248H24.7002V31.8248ZM23.3257 34.4498L22.8007 35.4998H21.3496L20.8246 34.4498H23.3257ZM22.9068 42.6825C22.8579 42.7356 22.7984 42.7778 22.7323 42.8066C22.6661 42.8354 22.5947 42.8501 22.5225 42.8498H21.6279C21.5558 42.8498 21.4845 42.835 21.4184 42.8062C21.3523 42.7774 21.2928 42.7354 21.2437 42.6826C21.1945 42.6298 21.1568 42.5675 21.1328 42.4995C21.1088 42.4316 21.0991 42.3594 21.1042 42.2875L21.514 36.5498H22.6362L23.0461 42.2875C23.0515 42.3594 23.042 42.4316 23.018 42.4996C22.994 42.5677 22.9561 42.6299 22.9068 42.6825Z" fill="#FF5252"/>
</svg>
