<svg width="32" height="33" viewBox="0 0 32 33" fill="none" xmlns="http://www.w3.org/2000/svg">
<circle cx="16" cy="16.5" r="16" fill="#7294C7"/>
<path d="M23.8448 20.5922C23.8448 20.5257 23.7784 20.5257 23.7784 20.4593C23.5127 19.928 22.915 19.2638 22.1179 18.5332C21.7194 18.2011 21.5202 17.9354 21.3873 17.8026C21.1881 17.5369 21.1881 17.3377 21.2545 17.072C21.3209 16.8727 21.5866 16.5406 22.0515 15.9429C22.3172 15.6108 22.45 15.4115 22.6493 15.2123C23.6455 13.8839 24.1105 13.0205 23.9776 12.622L23.9112 12.5555C23.8448 12.4891 23.7784 12.4227 23.6455 12.4227C23.5127 12.3563 23.3135 12.3563 23.1142 12.4227H20.5903C20.5239 12.4227 20.5239 12.4227 20.3911 12.4227C20.3246 12.4227 20.2582 12.4227 20.2582 12.4227H20.1918H20.1254L20.059 12.4891C19.9925 12.5555 19.9925 12.5555 19.9925 12.622C19.7269 13.3526 19.3948 13.9503 19.0627 14.6145C18.8634 14.9466 18.6642 15.2787 18.4649 15.5444C18.2657 15.81 18.1328 16.0093 18 16.1421C17.8672 16.275 17.7343 16.3414 17.6679 16.4742C17.6015 16.5406 17.4686 16.6071 17.4686 16.5406C17.4022 16.5406 17.3358 16.5406 17.3358 16.4742C17.2694 16.4078 17.203 16.3414 17.1366 16.275C17.0701 16.2085 17.0701 16.0757 17.0037 15.9429C17.0037 15.81 17.0037 15.6772 17.0037 15.6108C17.0037 15.5444 17.0037 15.3451 17.0037 15.2123C17.0037 15.013 17.0037 14.8802 17.0037 14.8138C17.0037 14.6145 17.0037 14.3488 17.0037 14.0832C17.0037 13.8175 17.0037 13.6182 17.0037 13.4854C17.0037 13.3526 17.0037 13.1533 17.0037 13.0205C17.0037 12.8212 17.0037 12.6884 17.0037 12.622C17.0037 12.5555 16.9373 12.4227 16.9373 12.3563C16.8709 12.2899 16.8045 12.2234 16.738 12.157C16.6716 12.0906 16.5388 12.0906 16.4724 12.0242C16.1403 11.9578 15.7418 11.8914 15.2769 11.8914C14.2142 11.8914 13.4836 11.9578 13.2179 12.0906C13.085 12.157 12.9522 12.2234 12.8858 12.3563C12.753 12.4891 12.7529 12.5555 12.8194 12.5555C13.1515 12.622 13.4171 12.7548 13.55 12.954L13.6164 13.0869C13.6828 13.1533 13.6828 13.2861 13.7492 13.4854C13.8156 13.6846 13.8156 13.8839 13.8156 14.1496C13.8156 14.5481 13.8156 14.9466 13.8156 15.2123C13.8156 15.5444 13.7492 15.7436 13.7492 15.9429C13.7492 16.1421 13.6828 16.275 13.6164 16.3414C13.55 16.4742 13.55 16.5406 13.4835 16.5406C13.4835 16.5406 13.4835 16.6071 13.4171 16.6071C13.3507 16.6071 13.2843 16.6735 13.1515 16.6735C13.085 16.6735 12.9522 16.6071 12.8858 16.5406C12.753 16.4742 12.6201 16.3414 12.5537 16.2085C12.4209 16.0757 12.288 15.8765 12.1552 15.6108C12.0223 15.3451 11.8231 15.0794 11.6902 14.6809L11.5574 14.4153C11.491 14.2824 11.3582 14.0167 11.2253 13.6847C11.0925 13.3526 10.9597 13.0869 10.8268 12.7548C10.7604 12.622 10.694 12.5555 10.6276 12.4891H10.5611C10.5611 12.4891 10.4947 12.4227 10.4283 12.4227C10.3619 12.4227 10.2955 12.3563 10.2291 12.3563H7.83799C7.57232 12.3563 7.43948 12.4227 7.37306 12.4891L7.30664 12.5555C7.30664 12.5555 7.30664 12.622 7.30664 12.6884C7.30664 12.7548 7.30664 12.8212 7.37306 12.954C7.70515 13.7511 8.10366 14.5481 8.50217 15.3451C8.90068 16.0757 9.2992 16.7399 9.56487 17.2048C9.89696 17.6698 10.1626 18.1347 10.4947 18.5332C10.8268 18.9317 11.0261 19.1974 11.0925 19.3302C11.2253 19.463 11.2917 19.5295 11.3582 19.5959L11.5574 19.7951C11.6903 19.928 11.8895 20.1272 12.1552 20.3265C12.4209 20.5257 12.7529 20.725 13.085 20.9242C13.4171 21.1235 13.8156 21.2563 14.2142 21.3892C14.6791 21.522 15.0776 21.5884 15.4761 21.522H16.4724C16.6716 21.522 16.8045 21.4556 16.9373 21.3228L17.0037 21.2563C17.0037 21.1899 17.0701 21.1899 17.0701 21.1235C17.0701 21.0571 17.0701 20.9907 17.0701 20.8578C17.0701 20.5922 17.0701 20.3929 17.1366 20.1937C17.203 19.9944 17.203 19.8616 17.2694 19.7287C17.3358 19.5959 17.4022 19.5295 17.4686 19.463C17.5351 19.3966 17.6015 19.3302 17.6015 19.3302H17.6679C17.8007 19.2638 18 19.3302 18.1328 19.463C18.3321 19.5959 18.5313 19.7951 18.6642 19.9944C18.797 20.1936 18.9963 20.3929 19.262 20.6586C19.5276 20.9243 19.7269 21.1235 19.8597 21.1899L20.059 21.3228C20.1918 21.3892 20.3246 21.4556 20.5239 21.522C20.7232 21.5884 20.856 21.5884 20.9888 21.5884L23.2471 21.522C23.4463 21.522 23.6456 21.4556 23.7784 21.3892C23.9112 21.3228 23.9776 21.2563 23.9776 21.1235C23.9776 21.0571 23.9776 20.9243 23.9776 20.8578C23.8448 20.725 23.8448 20.6586 23.8448 20.5922Z" fill="white" fill-opacity="0.87"/>
</svg>
