<svg width="16" height="12" viewBox="0 0 16 12" fill="none" xmlns="http://www.w3.org/2000/svg">
<path d="M5.25609 9.34838L2.25493 6.34723C2.17645 6.26779 2.08299 6.20472 1.97995 6.16168C1.87692 6.11863 1.76637 6.09647 1.6547 6.09647C1.54304 6.09647 1.43248 6.11863 1.32945 6.16168C1.22641 6.20472 1.13295 6.26779 1.05447 6.34723C0.975034 6.42571 0.911965 6.51917 0.868921 6.62221C0.825876 6.72524 0.803711 6.83579 0.803711 6.94746C0.803711 7.05912 0.825876 7.16968 0.868921 7.27271C0.911965 7.37575 0.975034 7.46921 1.05447 7.54769L4.64728 11.1405C4.9817 11.4749 5.5219 11.4749 5.85632 11.1405L14.9455 2.05986C15.025 1.98138 15.088 1.88792 15.1311 1.78488C15.1741 1.68185 15.1963 1.5713 15.1963 1.45963C15.1963 1.34797 15.1741 1.23741 15.1311 1.13438C15.088 1.03135 15.025 0.93788 14.9455 0.859401C14.8671 0.779965 14.7736 0.716897 14.6706 0.673852C14.5675 0.630807 14.457 0.608643 14.3453 0.608643C14.2336 0.608643 14.1231 0.630807 14.02 0.673852C13.917 0.716897 13.8235 0.779965 13.7451 0.859401L5.25609 9.34838Z" fill="white" fill-opacity="0.87"/>
</svg>
