<svg width="62" height="62" viewBox="0 0 62 62" fill="none" xmlns="http://www.w3.org/2000/svg">
<circle cx="31" cy="31" r="30.5" stroke="#FF5252"/>
<g clip-path="url(#clip0_189_2649)">
<path d="M46.8721 28.7407V24.0183C46.8721 22.417 45.63 21.1147 44.0607 20.9884L39.6751 13.3283C39.2687 12.6199 38.6124 12.1135 37.8271 11.9032C37.0456 11.6944 36.2283 11.8041 35.5288 12.2112L20.4948 20.9638H17.8543C16.1697 20.9638 14.7998 22.3337 14.7998 24.0183V42.3453C14.7998 44.0299 16.1697 45.3998 17.8543 45.3998H43.8176C45.5021 45.3998 46.8721 44.0299 46.8721 42.3453V37.6229C47.759 37.3066 48.3993 36.4669 48.3993 35.4727V30.8909C48.3993 29.8967 47.759 29.057 46.8721 28.7407ZM42.286 20.9638H35.6303L40.6222 18.0575L42.286 20.9638ZM39.8634 16.7322L32.5949 20.9638H29.5801L39.1095 15.4156L39.8634 16.7322ZM36.2976 13.5311C36.6429 13.329 37.0463 13.2753 37.4319 13.3783C37.8219 13.4827 38.1471 13.7347 38.3492 14.0875L38.3508 14.0902L26.5449 20.9638H23.5302L36.2976 13.5311ZM45.3448 42.3453C45.3448 43.1872 44.6595 43.8725 43.8176 43.8725H17.8543C17.0124 43.8725 16.3271 43.1872 16.3271 42.3453V24.0183C16.3271 23.1764 17.0124 22.4911 17.8543 22.4911H43.8176C44.6595 22.4911 45.3448 23.1764 45.3448 24.0183V28.6H40.763C38.2365 28.6 36.1813 30.6552 36.1813 33.1818C36.1813 35.7083 38.2365 37.7635 40.763 37.7635H45.3448V42.3453ZM46.8721 35.4727C46.8721 35.894 46.5298 36.2363 46.1084 36.2363H40.763C39.0785 36.2363 37.7085 34.8664 37.7085 33.1818C37.7085 31.4972 39.0784 30.1273 40.763 30.1273H46.1084C46.5297 30.1273 46.8721 30.4695 46.8721 30.8909V35.4727Z" fill="#FF5252"/>
<path d="M40.7626 31.6543C39.9207 31.6543 39.2354 32.3396 39.2354 33.1815C39.2354 34.0234 39.9207 34.7087 40.7626 34.7087C41.6045 34.7087 42.2898 34.0234 42.2898 33.1815C42.2899 32.3396 41.6045 31.6543 40.7626 31.6543Z" fill="#FF5252"/>
</g>
<defs>
<clipPath id="clip0_189_2649">
<rect width="33.6" height="33.6" fill="white" transform="translate(14.7998 11.7998)"/>
</clipPath>
</defs>
</svg>
