<svg width="62" height="62" viewBox="0 0 62 62" fill="none" xmlns="http://www.w3.org/2000/svg">
<circle cx="31" cy="31" r="30.5" stroke="#FF5252"/>
<g clip-path="url(#clip0_189_2604)">
<path d="M26.999 44.651C26.999 44.7902 27.0543 44.9238 27.1528 45.0222C27.2512 45.1207 27.3848 45.176 27.524 45.176H32.774C32.9133 45.176 33.0468 45.1207 33.1453 45.0222C33.2437 44.9238 33.299 44.7902 33.299 44.651C33.299 44.5117 33.2437 44.3782 33.1453 44.2797C33.0468 44.1813 32.9133 44.126 32.774 44.126H27.524C27.3848 44.126 27.2512 44.1813 27.1528 44.2797C27.0543 44.3782 26.999 44.5117 26.999 44.651Z" fill="#FF5252"/>
<path d="M46.6867 24.1756H39.5992V16.5631C39.5987 16.0759 39.4049 15.6089 39.0604 15.2644C38.716 14.9199 38.2489 14.7261 37.7617 14.7256H22.5367C22.0495 14.7261 21.5825 14.9199 21.238 15.2644C20.8935 15.6089 20.6998 16.0759 20.6992 16.5631V45.4381C20.6998 45.9253 20.8935 46.3923 21.238 46.7368C21.5825 47.0813 22.0495 47.275 22.5367 47.2756H37.7617C38.2489 47.275 38.716 47.0813 39.0604 46.7368C39.4049 46.3923 39.5987 45.9253 39.5992 45.4381V37.8256H46.6867C47.1739 37.825 47.641 37.6313 47.9854 37.2868C48.3299 36.9423 48.5237 36.4753 48.5242 35.9881V26.0131C48.5237 25.5259 48.3299 25.0589 47.9854 24.7144C47.641 24.3699 47.1739 24.1761 46.6867 24.1756ZM32.6266 15.7756L32.3641 16.8256H27.9344L27.6719 15.7756H32.6266ZM38.5492 45.4381C38.549 45.6469 38.466 45.8471 38.3184 45.9947C38.1707 46.1424 37.9705 46.2254 37.7617 46.2256H22.5367C22.3279 46.2254 22.1277 46.1424 21.9801 45.9947C21.8324 45.8471 21.7494 45.6469 21.7492 45.4381V16.5631C21.7494 16.3543 21.8324 16.1541 21.9801 16.0064C22.1277 15.8588 22.3279 15.7758 22.5367 15.7756H26.5891L27.015 17.4779C27.0434 17.5915 27.1089 17.6923 27.2012 17.7644C27.2934 17.8364 27.4071 17.8756 27.5242 17.8756H32.7742C32.8913 17.8756 33.005 17.8364 33.0973 17.7644C33.1895 17.6923 33.2551 17.5915 33.2835 17.4779L33.7094 15.7756H37.7617C37.9705 15.7758 38.1707 15.8588 38.3184 16.0064C38.466 16.1541 38.549 16.3543 38.5492 16.5631V24.1756H31.4617C30.9745 24.1761 30.5075 24.3699 30.163 24.7144C29.8185 25.0589 29.6248 25.5259 29.6242 26.0131V35.9881C29.6248 36.4753 29.8185 36.9423 30.163 37.2868C30.5075 37.6313 30.9745 37.825 31.4617 37.8256H38.5492V45.4381ZM47.4742 35.9881C47.474 36.1969 47.391 36.3971 47.2434 36.5447C47.0957 36.6924 46.8955 36.7754 46.6867 36.7756H31.4617C31.2529 36.7754 31.0527 36.6924 30.9051 36.5447C30.7574 36.3971 30.6744 36.1969 30.6742 35.9881V30.4756H47.4742V35.9881ZM47.4742 29.4256H30.6742V27.8506H47.4742V29.4256ZM47.4742 26.8006H30.6742V26.0131C30.6744 25.8043 30.7574 25.6041 30.9051 25.4564C31.0527 25.3088 31.2529 25.2258 31.4617 25.2256H46.6867C46.8955 25.2258 47.0957 25.3088 47.2434 25.4564C47.391 25.6041 47.474 25.8043 47.4742 26.0131V26.8006Z" fill="#FF5252"/>
<path d="M45.8992 33.1006H42.2242C42.085 33.1006 41.9514 33.1559 41.853 33.2544C41.7545 33.3528 41.6992 33.4863 41.6992 33.6256V35.2006C41.6992 35.3398 41.7545 35.4734 41.853 35.5718C41.9514 35.6703 42.085 35.7256 42.2242 35.7256H45.8992C46.0385 35.7256 46.172 35.6703 46.2705 35.5718C46.3689 35.4734 46.4242 35.3398 46.4242 35.2006V33.6256C46.4242 33.4863 46.3689 33.3528 46.2705 33.2544C46.172 33.1559 46.0385 33.1006 45.8992 33.1006ZM45.3742 34.6756H42.7492V34.1506H45.3742V34.6756Z" fill="#FF5252"/>
</g>
<defs>
<clipPath id="clip0_189_2604">
<rect width="33.6" height="33.6" fill="white" transform="translate(18.5996 14.2002)"/>
</clipPath>
</defs>
</svg>
